HIERARCHY
ROOT SpineBase
{
  OFFSET 0.000000 0.000000 0.000000
  CHANNELS 6 Xposition Yposition Zposition Zrotation Xrotation Yrotation
  JOINT SpineMid
  {
    OFFSET 0.000000 26.581333 0.000000
    CHANNELS 3 Zrotation Xrotation Yrotation
    JOINT SpineShoulder
    {
      OFFSET -0.093436 19.758866 -0.636326
      CHANNELS 3 Zrotation Xrotation Yrotation
      JOINT Neck
      {
        OFFSET -0.064911 6.532857 -0.498241
        CHANNELS 3 Zrotation Xrotation Yrotation
        JOINT Head
        {
          OFFSET -3.846168 12.666012 -0.255550
          CHANNELS 3 Zrotation Xrotation Yrotation
          End Site
          {
            OFFSET 0 0 0
          }
        }
      }
      JOINT ShoulderLeft
      {
        OFFSET -11.647986 -3.559647 8.560931
        CHANNELS 3 Zrotation Xrotation Yrotation
        JOINT ElbowLeft
        {
          OFFSET -2.418334 -19.218850 -6.486789
          CHANNELS 3 Zrotation Xrotation Yrotation
          JOINT WristLeft
          {
            OFFSET -8.896970 13.769465 -13.527187
            CHANNELS 3 Zrotation Xrotation Yrotation
            JOINT HandLeft
            {
              OFFSET -3.935183 5.121647 -5.228655
              CHANNELS 3 Zrotation Xrotation Yrotation
              JOINT HandTipLeft
              {
                OFFSET -0.280302 0.429231 -1.377304
                CHANNELS 3 Zrotation Xrotation Yrotation
                End Site
                {
                  OFFSET 0 0 0
                }
              }
              JOINT ThumbLeft
              {
                OFFSET -1.424446 1.103554 -1.353565
                CHANNELS 3 Zrotation Xrotation Yrotation
                End Site
                {
                  OFFSET 0 0 0
                }
              }
            }
          }
        }
      }
      JOINT ShoulderRight
      {
        OFFSET 8.961715 -3.425519 -12.433263
        CHANNELS 3 Zrotation Xrotation Yrotation
        JOINT ElbowRight
        {
          OFFSET 2.425365 -19.252582 -5.889738
          CHANNELS 3 Zrotation Xrotation Yrotation
          JOINT WristRight
          {
            OFFSET -16.944557 7.257554 -7.932987
            CHANNELS 3 Zrotation Xrotation Yrotation
            JOINT HandRight
            {
              OFFSET -4.580397 1.686067 -3.049556
              CHANNELS 3 Zrotation Xrotation Yrotation
              JOINT HandTipRight
              {
                OFFSET -5.113323 1.649263 -1.983133
                CHANNELS 3 Zrotation Xrotation Yrotation
                End Site
                {
                  OFFSET 0 0 0
                }
              }
              JOINT ThumbRight
              {
                OFFSET -1.352079 -0.888538 -4.126394
                CHANNELS 3 Zrotation Xrotation Yrotation
                End Site
                {
                  OFFSET 0 0 0
                }
              }
            }
          }
        }
      }
    }
  }
  JOINT HipLeft
  {
    OFFSET -4.090494 0.002789 1.720978
    CHANNELS 3 Zrotation Xrotation Yrotation
    JOINT KneeLeft
    {
      OFFSET 4.719867 -29.873678 5.367394
      CHANNELS 3 Zrotation Xrotation Yrotation
      JOINT AnkleLeft
      {
        OFFSET 10.140841 -32.600190 6.860010
        CHANNELS 3 Zrotation Xrotation Yrotation
        JOINT FootLeft
        {
          OFFSET -4.704584 -4.011728 -7.680282
          CHANNELS 3 Zrotation Xrotation Yrotation
          End Site
          {
            OFFSET 0 0 0
          }
        }
      }
    }
  }
  JOINT HipRight
  {
    OFFSET 3.704702 1.299947 -7.972921
    CHANNELS 3 Zrotation Xrotation Yrotation
    JOINT KneeRight
    {
      OFFSET 9.531897 -32.379909 5.842343
      CHANNELS 3 Zrotation Xrotation Yrotation
      JOINT AnkleRight
      {
        OFFSET 2.514161 -28.553633 8.683103
        CHANNELS 3 Zrotation Xrotation Yrotation
        JOINT FootRight
        {
          OFFSET -5.798341 -3.079003 -9.275015
          CHANNELS 3 Zrotation Xrotation Yrotation
          End Site
          {
            OFFSET 0 0 0
          }
        }
      }
    }
  }
}
MOTION
Frames: 13
Frame Time: 0.033333
18.085571 68.191765 345.197791 2.742692 4.167990 50.496552 -0.037902 0.370294 -50.513430 -0.177151 -0.145642 0.111408 -2.177823 -11.183913 -2.396553 0.000000 0.000000 0.000000 -33.921094 45.490304 14.175379 -6.037908 -57.417750 -46.553460 115.662900 4.392485 41.302545 -109.670207 53.794574 18.826673 0.000000 0.000000 0.000000 0.000000 0.000000 0.000000 -23.627146 11.677259 9.600588 6.298191 -4.703743 13.522217 -6.464887 7.957364 6.813234 -0.943487 -6.333839 -0.371280 0.000000 0.000000 0.000000 0.000000 0.000000 0.000000 -11.267045 -4.063340 -52.211148 3.331347 6.657260 1.300642 26.100057 -37.718560 7.352002 0.000000 0.000000 0.000000 -10.375998 -2.891282 -52.735841 6.758503 6.161951 2.969178 5.738625 -18.908982 4.224419 0.000000 0.000000 0.000000
18.120625 68.253115 345.181147 2.842386 4.195084 50.649247 -0.085642 0.431748 -50.672565 -0.135852 -0.139199 0.117209 -2.285672 -11.435748 -2.477849 0.000000 0.000000 0.000000 -34.114743 46.915814 14.420107 -6.732963 -58.764852 -47.034278 119.693498 8.087264 42.096850 -109.726353 53.441586 19.832278 0.000000 0.000000 0.000000 0.000000 0.000000 0.000000 -23.623729 11.682340 9.566136 5.942939 -4.399209 14.372600 -5.756766 7.315082 5.694945 -0.742107 -6.262859 0.421818 0.000000 0.000000 0.000000 0.000000 0.000000 0.000000 -12.094139 -2.395102 -52.527157 5.564845 5.296654 1.221571 24.630997 -35.618166 -3.166878 0.000000 0.000000 0.000000 -11.009121 -2.940011 -53.095672 7.104941 7.046574 3.138115 5.194639 -18.954286 5.441321 0.000000 0.000000 0.000000
18.083751 68.454867 345.205442 2.822371 4.146818 51.058515 -0.074166 0.433526 -51.080469 -0.096274 -0.144200 0.120970 -2.192798 -11.365648 -2.452913 0.000000 0.000000 0.000000 -34.078240 45.837820 14.260457 -5.866716 -58.482521 -46.380381 119.788347 7.745836 41.831042 -107.789801 50.690894 17.989332 0.000000 0.000000 0.000000 0.000000 0.000000 0.000000 -23.714703 11.847416 9.642261 6.007815 -4.491264 14.570176 -5.665836 7.210904 5.382581 -0.856615 -6.341606 -1.271303 0.000000 0.000000 0.000000 0.000000 0.000000 0.000000 -11.783979 -2.164318 -52.849944 5.365117 4.683453 1.084358 24.226600 -34.348683 -8.244388 0.000000 0.000000 0.000000 -11.455443 -3.181371 -53.701065 7.005946 8.333000 3.268338 2.947785 -16.719929 6.183224 0.000000 0.000000 0.000000
17.961309 68.737571 345.271963 2.667771 4.034708 51.530249 0.013119 0.382821 -51.543555 -0.063083 -0.141009 0.121594 -1.862833 -11.101487 -2.342481 0.000000 0.000000 0.000000 -34.086675 43.700640 14.048069 -4.431405 -56.980094 -45.402958 117.800048 6.947109 41.232008 -106.711390 49.651823 15.176820 0.000000 0.000000 0.000000 0.000000 0.000000 0.000000 -23.776821 11.996954 9.732206 6.257097 -4.590290 14.879283 -6.208539 7.634579 4.689784 -0.321386 -6.909936 -1.697443 0.000000 0.000000 0.000000 0.000000 0.000000 0.000000 -11.688209 -1.050905 -53.315246 6.480440 3.602280 1.026203 22.527340 -31.618173 -11.400538 0.000000 0.000000 0.000000 -10.788495 -2.649392 -53.931354 7.375003 7.042686 3.164433 -1.004326 -11.233697 6.504693 0.000000 0.000000 0.000000
17.952810 68.699821 345.259191 2.685396 3.978055 51.592143 -0.010809 0.378472 -51.604631 -0.077672 -0.143649 0.119847 -1.559244 -10.622299 -2.175138 0.000000 0.000000 0.000000 -33.837161 41.101055 13.610155 -3.353410 -54.573804 -44.701660 112.366414 5.695426 39.929001 -105.779989 51.851855 10.573420 0.000000 0.000000 0.000000 0.000000 0.000000 0.000000 -23.856565 12.092489 9.804115 6.933644 -4.987178 14.455990 -7.880182 9.130317 6.434738 -0.251274 -7.489958 -3.033862 0.000000 0.000000 0.000000 0.000000 0.000000 0.000000 -11.893128 -0.846447 -53.423466 6.755774 3.721322 1.071339 16.162618 -22.178773 -10.660863 0.000000 0.000000 0.000000 -10.111075 -2.018745 -53.699971 7.389938 5.021243 2.944248 -0.792708 -9.601007 4.787779 0.000000 0.000000 0.000000
17.898622 68.717331 345.272532 2.612918 3.855981 51.626912 0.045963 0.334066 -51.632399 -0.113081 -0.157251 0.115367 -1.216560 -9.747046 -1.900625 0.000000 0.000000 0.000000 -33.474132 39.573112 13.274472 -3.199540 -52.579054 -44.617459 105.184896 0.196936 38.078694 -94.567690 48.212376 7.865379 0.000000 0.000000 0.000000 0.000000 0.000000 0.000000 -23.944194 12.226003 9.909071 7.083829 -5.193201 13.866492 -8.536208 9.713092 7.701358 -0.284444 -7.683852 -3.401758 0.000000 0.000000 0.000000 0.000000 0.000000 0.000000 -11.764306 -1.057500 -53.455138 6.514467 4.225733 1.155376 11.620242 -16.490811 -7.465824 0.000000 0.000000 0.000000 -9.870579 -1.920849 -53.683449 7.437872 4.947275 2.933916 -3.315061 -5.633793 3.661325 0.000000 0.000000 0.000000
17.784242 68.771398 345.326747 2.463909 3.688153 51.642815 0.159144 0.263278 -51.637484 -0.128629 -0.136213 0.111841 -0.941500 -9.117980 -1.707980 0.000000 0.000000 0.000000 -33.305331 38.655597 13.127091 -3.082976 -51.280967 -44.557961 98.571747 -1.277610 36.209116 -87.988354 44.199758 -2.202477 0.000000 0.000000 0.000000 0.000000 0.000000 0.000000 -24.103259 12.353817 10.039858 7.204489 -5.369645 13.309500 -9.173504 10.241319 8.359863 -1.223290 -7.140188 -3.773437 0.000000 0.000000 0.000000 0.000000 0.000000 0.000000 -12.006487 -0.313291 -53.564228 7.955178 4.267085 1.351153 8.384932 -12.761620 -6.759891 0.000000 0.000000 0.000000 -9.041132 -1.708863 -53.454832 7.376025 4.103736 2.811132 -6.013795 -0.967163 2.626318 0.000000 0.000000 0.000000
17.636144 68.734878 345.378213 2.295595 3.539860 51.559779 0.262717 0.191841 -51.544622 -0.096284 -0.105926 0.112556 -0.773803 -8.631944 -1.567656 0.000000 0.000000 0.000000 -33.538496 38.425019 13.276116 -2.896252 -50.560647 -44.510840 95.729398 -5.002148 35.109863 -83.381671 36.243081 -6.994053 0.000000 0.000000 0.000000 0.000000 0.000000 0.000000 -24.237137 12.556060 10.169114 7.314479 -5.669782 12.684208 -9.709247 10.656969 9.057698 -1.948573 -6.601111 -2.595153 0.000000 0.000000 0.000000 0.000000 0.000000 0.000000 -11.403571 -1.163774 -53.401381 7.027174 4.892845 1.381490 7.212637 -13.009870 -3.660002 0.000000 0.000000 0.000000 -8.310686 -1.663756 -53.177774 7.103772 3.214201 2.663098 -7.074318 1.572176 2.061210 0.000000 0.000000 0.000000
17.572337 68.621588 345.395842 2.244503 3.477732 51.499871 0.279180 0.165202 -51.481656 -0.072187 -0.070625 0.113714 -0.620501 -8.264113 -1.450002 0.000000 0.000000 0.000000 -34.175329 38.913461 13.721245 -2.651873 -50.452050 -44.486430 96.598768 -7.761994 35.343988 -86.122358 36.140254 -6.643487 0.000000 0.000000 0.000000 0.000000 0.000000 0.000000 -24.307987 12.620337 10.217513 7.448785 -5.886334 12.140031 -10.514125 11.253672 9.052077 -2.139151 -6.574187 -1.583098 0.000000 0.000000 0.000000 0.000000 0.000000 0.000000 -10.936589 -2.109168 -53.256548 5.851583 5.614069 1.398205 6.473261 -14.677950 1.214084 0.000000 0.000000 0.000000 -7.927675 -1.717447 -53.010018 6.830187 2.987187 2.578197 -4.795791 -2.426236 3.083307 0.000000 0.000000 0.000000
17.578934 68.472848 345.399813 2.310359 3.480817 51.562434 0.231535 0.165457 -51.545577 -0.046017 -0.031968 0.117647 -0.750022 -8.028952 -1.396188 0.000000 0.000000 0.000000 -34.593554 40.030154 14.067465 -3.110825 -50.589987 -44.873552 102.240659 -3.274184 37.943569 -91.483741 35.812324 -8.895258 0.000000 0.000000 0.000000 0.000000 0.000000 0.000000 -24.310503 12.645580 10.194167 7.486768 -6.024856 11.833551 -11.195937 11.759605 9.705490 -1.627899 -7.099039 -1.076570 0.000000 0.000000 0.000000 0.000000 0.000000 0.000000 -10.924283 -2.030878 -53.297597 5.847469 5.503803 1.377559 11.843551 -20.607319 -2.251091 0.000000 0.000000 0.000000 -7.968072 -1.888113 -53.083426 6.579051 3.362141 2.573091 -4.832782 -2.573326 3.165399 0.000000 0.000000 0.000000
17.670466 68.336209 345.363151 2.510408 3.584558 51.487611 0.107981 0.200572 -51.477839 -0.030256 0.007544 0.123347 -1.065089 -8.102416 -1.436104 0.000000 0.000000 0.000000 -35.291611 41.796912 14.619884 -3.541638 -51.703849 -45.251972 107.285549 -0.073412 39.964488 -98.950743 38.063049 -9.176060 0.000000 0.000000 0.000000 0.000000 0.000000 0.000000 -24.409234 12.624748 10.163798 7.532550 -6.075234 11.878644 -10.952444 11.562240 8.777071 -2.037984 -6.601939 0.699284 0.000000 0.000000 0.000000 0.000000 0.000000 0.000000 -10.988990 -2.505737 -53.190219 5.080811 5.838398 1.343590 14.569933 -23.762260 -3.233443 0.000000 0.000000 0.000000 -8.449533 -2.159025 -53.134537 6.357319 4.364011 2.644046 -2.253918 -7.475935 4.555640 0.000000 0.000000 0.000000
17.722447 68.246429 345.353247 2.622508 3.634851 51.247435 0.036727 0.209726 -51.240954 -0.021387 0.019669 0.126880 -1.211781 -7.988950 -1.416887 0.000000 0.000000 0.000000 -35.974465 42.281687 15.054867 -3.290830 -51.797050 -45.205312 111.340132 3.545108 41.445121 -100.409567 36.140419 -8.712280 0.000000 0.000000 0.000000 0.000000 0.000000 0.000000 -24.367595 12.545665 10.086950 7.651961 -6.161052 11.587533 -10.559519 11.233350 10.495815 -1.293360 -7.102371 -1.264930 0.000000 0.000000 0.000000 0.000000 0.000000 0.000000 -11.032932 -2.625065 -52.937947 4.855311 5.676694 1.265887 15.363289 -23.374189 -6.929142 0.000000 0.000000 0.000000 -8.789985 -2.072446 -52.977735 6.972975 5.165296 2.823350 -0.463148 -11.770293 5.727697 0.000000 0.000000 0.000000
17.736896 68.255189 345.311139 2.700601 3.697958 51.397779 -0.013001 0.182794 -51.392165 -0.028396 0.005553 0.129295 -1.576188 -7.802478 -1.409249 0.000000 0.000000 0.000000 -36.939769 42.405721 15.634559 -2.530964 -51.766886 -44.893746 113.022867 3.528542 42.132892 -99.065184 32.278051 -7.888186 0.000000 0.000000 0.000000 0.000000 0.000000 0.000000 -24.499992 12.719815 10.161473 7.873179 -6.394883 11.687938 -9.882021 10.678489 9.342926 -0.786364 -7.082223 0.380344 0.000000 0.000000 0.000000 0.000000 0.000000 0.000000 -10.619960 -3.221408 -52.957730 3.661692 5.689542 1.142310 13.992810 -21.821450 -3.976471 0.000000 0.000000 0.000000 -9.278390 -2.239805 -53.283795 7.160824 6.387967 2.975166 0.962424 -14.986651 6.572512 0.000000 0.000000 0.000000
